<?xml version="1.0" encoding="UTF-8" standalone="no"?>
<!-- Generator: Adobe Illustrator 19.0.0, SVG Export Plug-In . SVG Version: 6.00 Build 0)  -->

<svg
   xmlns:dc="http://purl.org/dc/elements/1.1/"
   xmlns:cc="http://creativecommons.org/ns#"
   xmlns:rdf="http://www.w3.org/1999/02/22-rdf-syntax-ns#"
   xmlns:svg="http://www.w3.org/2000/svg"
   xmlns="http://www.w3.org/2000/svg"
   xmlns:sodipodi="http://sodipodi.sourceforge.net/DTD/sodipodi-0.dtd"
   xmlns:inkscape="http://www.inkscape.org/namespaces/inkscape"
   version="1.1"
   id="Calque_1"
   x="0px"
   y="0px"
   viewBox="0 0 595.3 595.3"
   style="enable-background:new 0 0 595.3 595.3;"
   xml:space="preserve"
   inkscape:version="0.48.4 r9939"
   width="100%"
   height="100%"
   sodipodi:docname="logo_fondblanc.svg"><metadata
     id="metadata15"><rdf:RDF><cc:Work
         rdf:about=""><dc:format>image/svg+xml</dc:format><dc:type
           rdf:resource="http://purl.org/dc/dcmitype/StillImage" /><dc:title></dc:title></cc:Work></rdf:RDF></metadata><defs
     id="defs13" /><sodipodi:namedview
     pagecolor="#ffffff"
     bordercolor="#666666"
     borderopacity="1"
     objecttolerance="10"
     gridtolerance="10"
     guidetolerance="10"
     inkscape:pageopacity="0"
     inkscape:pageshadow="2"
     inkscape:window-width="1600"
     inkscape:window-height="879"
     id="namedview11"
     showgrid="false"
     inkscape:zoom="0.39643877"
     inkscape:cx="297.65"
     inkscape:cy="297.65"
     inkscape:window-x="0"
     inkscape:window-y="21"
     inkscape:window-maximized="1"
     inkscape:current-layer="Calque_1" /><style
     type="text/css"
     id="style3">
	.st0{fill:#FFFFFF;}
	.st1{fill:#FBA858;}
</style><g
     id="XMLID_6_"><circle
       id="XMLID_4_"
       class="st0"
       cx="298.5"
       cy="295.8"
       r="290.5" /><g
       id="XMLID_5_"><path
         id="XMLID_3_"
         class="st1"
         d="M357.3,258.6c-1.5,1.3-2.9,2.5-4.2,3.5c-11.7,9.6-29.4,19-44.6,26.7    c-33.8,17-63.4,28.8-102.7,39.7c-18,5-43.5,7.3-59.3,5.7c-61.4-6.2-108.8-44-134.9-84.4c-2.4,15-3.7,30.4-3.7,46.1    c0,66.9,22.7,128.4,60.7,177.5c4.4-5.7,9-11.2,13.9-16.2c63.3-64,158.1-62.8,227.9-116.7c25.4-19.6,49.2-48.1,72.4-73.7    c-18.8,21.2-30.8,26.2-49.2,27.7c5.8-15.4,12.9-25,19.7-31.6C354.8,261.4,356.1,260,357.3,258.6z" /><path
         id="XMLID_2_"
         class="st1"
         d="M417.3,234.9c1.3-0.9,2.4-2.1,3.3-3.4c3.4-4.8,6.8-12.1-5.7-5c-1.7,1-3.2,2.2-4.2,3.6    C404.5,238.5,410.3,239.7,417.3,234.9z" /><path
         id="XMLID_1_"
         class="st1"
         d="M298.5,5.3C155.1,5.3,36,109.2,12.4,245.9c16.4,14.7,31.8,33.3,56.6,41.6    c28.5,9.5,60,4.6,81.1-5.9c-4.4-25.2-26.8-43.5-51.4-61c44.7,10.1,68.7,41.1,95.5,64.6c25.9,2.5,47.9-2.5,71.3-9.5    c35-10.5,73.6-27.8,99.6-52.5c8.4-8,19.4-19.5,24.9-28.6c15.1-24.7,17.4-51.2,21.6-72.7c2.6,30.3-0.7,67.2-23.5,103.4    c6.7-4.5,14.2-8.8,20.7-13.4c22.9-16.3,41.4-29.6,64.3-46.9c8.2-6.2,24.8-23,33.7-19.3c8.4,3.5,7.4,21,6,29.3    c-3.4,20.9-9.7,39.6-15.3,54.9c-16.8,46.6-39.7,89.2-61.7,131.9c-44.8,87.1-97.1,138.7-158,180.5c-17,11.7-34.7,22.7-51.9,34.7    c21.9,5.6,44.9,8.7,68.4,9c2.5-21.4,5.2-52.1,5.2-52.1l47.8-41.4c-7.8,31.8-12.1,64.2-23.3,92.4c148.4-13,264.9-137.5,264.9-289.3    C588.9,135.4,458.9,5.3,298.5,5.3z" /></g></g></svg>